<?xml version="1.0" encoding="UTF-8" standalone="no"?>
<svg
   xmlns:dc="http://purl.org/dc/elements/1.1/"
   xmlns:cc="http://creativecommons.org/ns#"
   xmlns:rdf="http://www.w3.org/1999/02/22-rdf-syntax-ns#"
   xmlns:svg="http://www.w3.org/2000/svg"
   xmlns="http://www.w3.org/2000/svg"
   id="svg1258"
   version="1.1"
   viewBox="0 0 210 297">
  <defs
     id="defs1252" />
  <metadata
     id="metadata1255">
    <rdf:RDF>
      <cc:Work
         rdf:about="">
        <dc:format>image/svg+xml</dc:format>
        <dc:type
           rdf:resource="http://purl.org/dc/dcmitype/StillImage" />
        <dc:title></dc:title>
      </cc:Work>
    </rdf:RDF>
  </metadata>
  <g
     id="layer1">
    <g
       id="g1232"
       transform="matrix(4.1817545,0,0,4.1817545,-39.175327,42.005179)">
      <g
         id="g1076"
         transform="translate(-4.8108515,-20.045215)">
        <path
           id="path940"
           d="m 26.30312,26.226127 c 4.91484,-5.284594 15.384685,-3.850991 21.648831,-0.267269 2.805518,1.605038 3.949095,5.303793 4.810852,8.41899 1.152257,4.165339 -1.749801,9.140377 0.267269,12.962572 0.894217,1.694473 4.469047,1.436261 4.677217,3.340868 0.06511,0.595743 -0.619032,1.729628 -1.202714,1.865516 -1.401801,0.326356 -2.822094,-2.946857 -4.009041,-2.132785 -3.049234,2.091328 2.466712,8.223197 0.133633,11.091685 -5.12649,6.302948 -17.496264,9.650716 -23.920621,4.677217 C 18.157728,58.01487 17.216173,35.996706 26.30312,26.226127 Z"
           style="fill:none;stroke:#000000;stroke-width:0.5;stroke-linecap:butt;stroke-linejoin:miter;stroke-miterlimit:4;stroke-dasharray:none;stroke-opacity:1" />
        <path
           id="path942"
           d="m 42.186853,41.063711 c 3.603375,0.634412 4.968741,0.428573 8.574114,-0.13364"
           style="fill:none;stroke:#000000;stroke-width:1;stroke-linecap:round;stroke-linejoin:miter;stroke-miterlimit:4;stroke-dasharray:none;stroke-opacity:1" />
        <path
           id="path942-3"
           d="m 45.691056,61.691121 c 4.354425,-6.767983 4.212013,-4.847639 7.550364,-2.104742"
           style="fill:none;stroke:#000000;stroke-width:1;stroke-linecap:butt;stroke-linejoin:miter;stroke-miterlimit:4;stroke-dasharray:none;stroke-opacity:1" />
        <path
           id="path988"
           d="m 51.847918,51.189734 c 0.452298,0.26855 1.682289,0.708157 2.346679,0.324571 0.371883,-0.214707 -0.629556,-0.847588 -0.997208,-1.000484 -0.497373,-0.206843 -1.384482,0.500859 -1.34947,0.675918 z"
           style="fill:#000000;stroke:#000000;stroke-width:0.20186836px;stroke-linecap:butt;stroke-linejoin:miter;stroke-opacity:1" />
        <path
           id="path942-5"
           d="m 43.222503,41.690448 c -0.231558,0.515147 -0.302068,0.672042 -0.550969,1.225783"
           style="fill:none;stroke:#000000;stroke-width:1;stroke-linecap:round;stroke-linejoin:miter;stroke-miterlimit:4;stroke-dasharray:none;stroke-opacity:1" />
        <path
           id="path942-5-1"
           d="m 49.619573,41.614081 c 0.283167,0.488685 0.369418,0.637509 0.673801,1.162801"
           style="fill:none;stroke:#000000;stroke-width:1;stroke-linecap:round;stroke-linejoin:miter;stroke-miterlimit:4;stroke-dasharray:none;stroke-opacity:1" />
        <path
           id="path942-5-2"
           d="m 45.347449,41.971537 c -0.113487,0.55328 -0.148037,0.721785 -0.270021,1.316513"
           style="fill:none;stroke:#000000;stroke-width:1;stroke-linecap:round;stroke-linejoin:miter;stroke-miterlimit:4;stroke-dasharray:none;stroke-opacity:1" />
        <path
           id="path942-5-7"
           d="m 47.361785,41.942751 c 0.130988,0.549397 0.170899,0.716714 0.311709,1.307267"
           style="fill:none;stroke:#000000;stroke-width:1;stroke-linecap:round;stroke-linejoin:miter;stroke-miterlimit:4;stroke-dasharray:none;stroke-opacity:1" />
      </g>
    </g>
  </g>
</svg>
