<?xml version="1.0" encoding="UTF-8" standalone="no"?>
<!-- Created with Inkscape (http://www.inkscape.org/) -->

<svg
   xmlns:dc="http://purl.org/dc/elements/1.1/"
   xmlns:cc="http://creativecommons.org/ns#"
   xmlns:rdf="http://www.w3.org/1999/02/22-rdf-syntax-ns#"
   xmlns:svg="http://www.w3.org/2000/svg"
   xmlns="http://www.w3.org/2000/svg"
   xmlns:sodipodi="http://sodipodi.sourceforge.net/DTD/sodipodi-0.dtd"
   xmlns:inkscape="http://www.inkscape.org/namespaces/inkscape"
   width="26.164604mm"
   height="48mm"
   viewBox="0 0 26.164603 48"
   version="1.1"
   id="svg831"
   inkscape:version="0.92.3 (2405546, 2018-03-11)"
   sodipodi:docname="flower-petal.svg">
  <defs
     id="defs825" />
  <sodipodi:namedview
     id="base"
     pagecolor="#ffffff"
     bordercolor="#666666"
     borderopacity="1.0"
     inkscape:pageopacity="0.0"
     inkscape:pageshadow="2"
     inkscape:zoom="2"
     inkscape:cx="133.56123"
     inkscape:cy="193.74901"
     inkscape:document-units="mm"
     inkscape:current-layer="layer1"
     showgrid="false"
     inkscape:window-width="1853"
     inkscape:window-height="1025"
     inkscape:window-x="67"
     inkscape:window-y="27"
     inkscape:window-maximized="1" />
  <metadata
     id="metadata828">
    <rdf:RDF>
      <cc:Work
         rdf:about="">
        <dc:format>image/svg+xml</dc:format>
        <dc:type
           rdf:resource="http://purl.org/dc/dcmitype/StillImage" />
        <dc:title />
      </cc:Work>
    </rdf:RDF>
  </metadata>
  <g
     inkscape:label="Layer 1"
     inkscape:groupmode="layer"
     id="layer1"
     transform="translate(65.869668,-369.84051)">
    <path
       style="fill:#ffffff;fill-opacity:1;stroke:#000000;stroke-width:0.46884963;stroke-linecap:round;stroke-miterlimit:4;stroke-dasharray:none"
       d="m -56.40904,370.1213 c -0.241386,0.2254 -0.480199,0.45357 -0.71377,0.68712 -1.314846,1.31485 -2.504417,2.75537 -3.548987,4.30153 -1.044569,1.54617 -1.944331,3.19827 -2.679671,4.93681 -0.735336,1.7385 -1.306422,3.56334 -1.693568,5.45526 -0.387146,1.89193 -0.590207,3.85109 -0.590207,5.85748 0,2.0064 0.203075,3.96507 0.590207,5.85699 0.387146,1.89193 0.958232,3.71676 1.693568,5.4553 0.73534,1.73851 1.635102,3.3906 2.679671,4.93677 1.04457,1.54617 2.234141,2.98669 3.548987,4.30153 1.314847,1.31485 2.754876,2.50395 4.30104,3.5485 1.1617,0.78483 2.383051,1.48811 3.656077,2.10109 0.241493,-0.22576 0.480572,-0.45392 0.714256,-0.68758 1.314847,-1.31485 2.503932,-2.75537 3.548505,-4.30153 1.044566,-1.54617 1.944332,-3.19827 2.679667,-4.93681 0.735336,-1.73854 1.306423,-3.56334 1.693572,-5.45527 0.387143,-1.89196 0.590204,-3.85062 0.590204,-5.85698 0,-2.0064 -0.203076,-3.96556 -0.590204,-5.85748 -0.387149,-1.89196 -0.958236,-3.71676 -1.693572,-5.4553 -0.735335,-1.73854 -1.635101,-3.39061 -2.679667,-4.93681 -1.044573,-1.54617 -2.233658,-2.98665 -3.548505,-4.30149 -1.314846,-1.31485 -2.755358,-2.50396 -4.301525,-3.54853 -1.161644,-0.78476 -2.383115,-1.48762 -3.656078,-2.1006 z"
       id="petal"
       inkscape:connector-curvature="0" />
  </g>
</svg>
