<?xml version="1.0" encoding="UTF-8" standalone="no"?>
<!-- Created with Inkscape (http://www.inkscape.org/) -->

<svg
   xmlns:dc="http://purl.org/dc/elements/1.1/"
   xmlns:cc="http://creativecommons.org/ns#"
   xmlns:rdf="http://www.w3.org/1999/02/22-rdf-syntax-ns#"
   xmlns:svg="http://www.w3.org/2000/svg"
   xmlns="http://www.w3.org/2000/svg"
   xmlns:sodipodi="http://sodipodi.sourceforge.net/DTD/sodipodi-0.dtd"
   xmlns:inkscape="http://www.inkscape.org/namespaces/inkscape"
   width="50%"
   height="50%"
   viewBox="0 0 47.999998 48"
   version="1.1"
   id="svg831"
   inkscape:version="0.92.3 (2405546, 2018-03-11)"
   sodipodi:docname="flower-petal.svg">
  <defs
     id="defs825" />
  <sodipodi:namedview
     id="base"
     pagecolor="#ffffff"
     bordercolor="#666666"
     borderopacity="1.0"
     inkscape:pageopacity="0.0"
     inkscape:pageshadow="2"
     inkscape:zoom="2"
     inkscape:cx="-12.901008"
     inkscape:cy="82.927301"
     inkscape:document-units="mm"
     inkscape:current-layer="layer1"
     showgrid="false"
     inkscape:window-width="1853"
     inkscape:window-height="1025"
     inkscape:window-x="67"
     inkscape:window-y="27"
     inkscape:window-maximized="1" />
  <metadata
     id="metadata828">
    <rdf:RDF>
      <cc:Work
         rdf:about="">
        <dc:format>image/svg+xml</dc:format>
        <dc:type
           rdf:resource="http://purl.org/dc/dcmitype/StillImage" />
        <dc:title></dc:title>
      </cc:Work>
    </rdf:RDF>
  </metadata>
  <g
     inkscape:label="Layer 1"
     inkscape:groupmode="layer"
     id="layer1"
     transform="translate(65.869668,-369.84051)">
    <path
       style="fill:#ffffff;fill-opacity:1;stroke:#000000;stroke-width:0.46348497;stroke-linecap:round;stroke-miterlimit:4;stroke-dasharray:none"
       d="m -42.145547,370.12128 c -0.268523,0.1857 -0.534928,0.37449 -0.79698,0.56929 -1.475192,1.09671 -2.845951,2.33436 -4.090098,3.6962 -1.244149,1.36186 -2.361918,2.84815 -3.331321,4.44266 -0.969391,1.59445 -1.79057,3.297 -2.441505,5.09163 -0.650937,1.79463 -1.13151,3.68151 -1.420282,5.64381 -0.288774,1.96231 -0.372065,3.90716 -0.265737,5.81322 0.106339,1.90607 0.402234,3.773 0.871189,5.57917 0.468964,1.80614 1.111174,3.55142 1.910253,5.21396 0.799082,1.66253 1.755181,3.24261 2.851893,4.71779 1.096711,1.4752 2.333953,2.84542 3.695801,4.08955 1.023212,0.93479 2.116504,1.79839 3.27333,2.58112 0.268679,-0.18604 0.535343,-0.37478 0.797521,-0.56967 1.475193,-1.09671 2.845477,-2.33444 4.089627,-3.69627 1.244146,-1.36185 2.36192,-2.84815 3.331317,-4.44266 0.969397,-1.59449 1.790571,-3.29699 2.441511,-5.09164 0.650937,-1.79465 1.131439,-3.68105 1.420206,-5.64332 0.288774,-1.9623 0.372135,-3.90764 0.265812,-5.8137 -0.106339,-1.9061 -0.402239,-3.77299 -0.871195,-5.57917 -0.468953,-1.80616 -1.11117,-3.55143 -1.910243,-5.21399 -0.799084,-1.66254 -1.754715,-3.24249 -2.851427,-4.71768 -1.09671,-1.4752 -2.334422,-2.84551 -3.696271,-4.08966 -1.023168,-0.9347 -2.116637,-1.79792 -3.273401,-2.58064 z"
       id="petal5"
       inkscape:connector-curvature="0" />
    <path
       style="fill:#ffffff;fill-opacity:1;stroke:#000000;stroke-width:0.46348497;stroke-linecap:round;stroke-miterlimit:4;stroke-dasharray:none"
       d="m -42.145549,370.12128 c -0.268523,0.1857 -0.534928,0.37449 -0.79698,0.56929 -1.475192,1.09671 -2.845951,2.33436 -4.090098,3.6962 -1.244149,1.36186 -2.361918,2.84815 -3.33132,4.44266 -0.969392,1.59445 -1.790571,3.297 -2.441506,5.09163 -0.650936,1.79463 -1.131513,3.68151 -1.420281,5.64381 -0.288777,1.96231 -0.372063,3.90716 -0.265734,5.81322 0.106339,1.90608 0.402234,3.77301 0.871186,5.57918 0.468962,1.80613 1.111173,3.55141 1.910252,5.21396 0.799082,1.66252 1.755181,3.24261 2.851893,4.71778 1.096711,1.4752 2.333953,2.84543 3.695801,4.08956 1.023212,0.93479 2.116504,1.79838 3.27333,2.58111 0.268679,-0.18604 0.535343,-0.37477 0.797521,-0.56967 1.475193,-1.0967 2.845477,-2.33443 4.089627,-3.69627 1.244146,-1.36184 2.361921,-2.84814 3.331317,-4.44266 0.969397,-1.59449 1.790572,-3.29699 2.441511,-5.09164 0.650938,-1.79465 1.13144,-3.68104 1.420208,-5.64331 0.288772,-1.96231 0.372134,-3.90765 0.26581,-5.81371 -0.106339,-1.9061 -0.402239,-3.77299 -0.871194,-5.57917 -0.468953,-1.80616 -1.11117,-3.55143 -1.910244,-5.21399 -0.799083,-1.66254 -1.754715,-3.24249 -2.851427,-4.71768 -1.09671,-1.4752 -2.334421,-2.84551 -3.696271,-4.08966 -1.023168,-0.9347 -2.116636,-1.79792 -3.273401,-2.58064 z"
       id="petal4"
       inkscape:connector-curvature="0" />
    <path
       style="fill:#ffffff;fill-opacity:1;stroke:#000000;stroke-width:0.46348497;stroke-linecap:round;stroke-miterlimit:4;stroke-dasharray:none"
       d="m -42.145548,370.12128 c -0.268522,0.1857 -0.534929,0.37449 -0.796976,0.56929 -1.475195,1.09671 -2.845959,2.33436 -4.090098,3.6962 -1.24415,1.36186 -2.361922,2.84815 -3.331322,4.44266 -0.969389,1.59445 -1.790574,3.297 -2.44151,5.09163 -0.650936,1.79463 -1.131503,3.68151 -1.420281,5.64381 -0.288777,1.96231 -0.372063,3.90716 -0.265734,5.81322 0.106339,1.90608 0.402234,3.77301 0.871186,5.57918 0.468962,1.80613 1.111179,3.55141 1.91025,5.21396 0.799091,1.66252 1.755184,3.24261 2.8519,4.71778 1.096706,1.4752 2.333946,2.84543 3.695803,4.08956 1.023206,0.93479 2.116502,1.79838 3.273322,2.58111 0.26868,-0.18604 0.535344,-0.37477 0.797529,-0.56967 1.475185,-1.0967 2.845475,-2.33443 4.089624,-3.69627 1.24414,-1.36184 2.361922,-2.84814 3.331312,-4.44266 0.969401,-1.59449 1.790576,-3.29699 2.441515,-5.09164 0.650937,-1.79465 1.13144,-3.68104 1.420207,-5.64331 0.288773,-1.96231 0.372135,-3.90765 0.265811,-5.81371 -0.106339,-1.9061 -0.402239,-3.77299 -0.871194,-5.57917 -0.468953,-1.80616 -1.11117,-3.55143 -1.910244,-5.21399 -0.799087,-1.66254 -1.754716,-3.24249 -2.851432,-4.71768 -1.096706,-1.4752 -2.33442,-2.84551 -3.696267,-4.08966 -1.023167,-0.9347 -2.116631,-1.79792 -3.273401,-2.58064 z"
       id="petal3"
       inkscape:connector-curvature="0" />
    <path
       style="fill:#ffffff;fill-opacity:1;stroke:#000000;stroke-width:0.46348497;stroke-linecap:round;stroke-miterlimit:4;stroke-dasharray:none"
       d="m -42.145548,370.12128 c -0.268522,0.1857 -0.534929,0.37449 -0.796976,0.56929 -1.475195,1.09671 -2.845959,2.33436 -4.090098,3.6962 -1.24415,1.36186 -2.361922,2.84815 -3.331322,4.44266 -0.969389,1.59445 -1.790574,3.297 -2.44151,5.09163 -0.650936,1.79463 -1.131503,3.68151 -1.420281,5.64381 -0.288777,1.96231 -0.372063,3.90716 -0.265734,5.81322 0.106339,1.90608 0.402234,3.77301 0.871186,5.57918 0.468962,1.80613 1.111179,3.55141 1.91025,5.21396 0.799091,1.66252 1.755184,3.24261 2.8519,4.71778 1.096706,1.4752 2.333946,2.84543 3.695803,4.08956 1.023206,0.93479 2.116502,1.79838 3.273322,2.58111 0.26868,-0.18604 0.535344,-0.37477 0.797529,-0.56967 1.475185,-1.0967 2.845475,-2.33443 4.089624,-3.69627 1.24414,-1.36184 2.361922,-2.84814 3.331312,-4.44266 0.969399,-1.59449 1.790574,-3.29699 2.44151,-5.09164 0.650945,-1.79465 1.131444,-3.68104 1.420211,-5.64331 0.288778,-1.96231 0.372133,-3.90765 0.265814,-5.81371 -0.106339,-1.9061 -0.402244,-3.77299 -0.871196,-5.57917 -0.468952,-1.80616 -1.111169,-3.55143 -1.91024,-5.21399 -0.799091,-1.66254 -1.75472,-3.24249 -2.851436,-4.71768 -1.096706,-1.4752 -2.33442,-2.84551 -3.696267,-4.08966 -1.023167,-0.9347 -2.116631,-1.79792 -3.273401,-2.58064 z"
       id="petal2"
       inkscape:connector-curvature="0" />
    <path
       style="fill:#ffffff;fill-opacity:1;stroke:#000000;stroke-width:0.46348497;stroke-linecap:round;stroke-miterlimit:4;stroke-dasharray:none"
       d="m -42.145548,370.12128 c -0.268522,0.1857 -0.534929,0.37449 -0.796976,0.56929 -1.475195,1.09671 -2.845959,2.33436 -4.090098,3.6962 -1.24415,1.36186 -2.361922,2.84815 -3.331322,4.44266 -0.969389,1.59445 -1.790574,3.297 -2.44151,5.09163 -0.650936,1.79463 -1.131503,3.68151 -1.420281,5.64381 -0.288777,1.96231 -0.372063,3.90716 -0.265734,5.81322 0.106339,1.90608 0.402234,3.77301 0.871186,5.57918 0.468962,1.80613 1.111179,3.55141 1.91025,5.21396 0.799091,1.66252 1.755184,3.24261 2.8519,4.71778 1.096706,1.4752 2.333946,2.84543 3.695803,4.08956 1.023206,0.93479 2.116502,1.79838 3.273322,2.58111 0.26868,-0.18604 0.535344,-0.37477 0.797529,-0.56967 1.475189,-1.0967 2.845473,-2.33443 4.089623,-3.69627 1.244146,-1.36184 2.361921,-2.84814 3.331317,-4.44266 0.969397,-1.59449 1.790572,-3.29699 2.441511,-5.09164 0.650937,-1.79465 1.13144,-3.68104 1.420207,-5.64331 0.288773,-1.96231 0.372135,-3.90765 0.265811,-5.81371 -0.106339,-1.9061 -0.402239,-3.77299 -0.871194,-5.57917 -0.468953,-1.80616 -1.11117,-3.55143 -1.910244,-5.21399 -0.799083,-1.66254 -1.754715,-3.24249 -2.851427,-4.71768 -1.09671,-1.4752 -2.334421,-2.84551 -3.696271,-4.08966 -1.023168,-0.9347 -2.116632,-1.79792 -3.273402,-2.58064 z"
       id="petal1"
       inkscape:connector-curvature="0" />
  </g>
</svg>
