<?xml version="1.0" encoding="UTF-8" standalone="no"?>
<!-- Created with Inkscape (http://www.inkscape.org/) -->

<svg
   xmlns:dc="http://purl.org/dc/elements/1.1/"
   xmlns:cc="http://creativecommons.org/ns#"
   xmlns:rdf="http://www.w3.org/1999/02/22-rdf-syntax-ns#"
   xmlns:svg="http://www.w3.org/2000/svg"
   xmlns="http://www.w3.org/2000/svg"
   xmlns:sodipodi="http://sodipodi.sourceforge.net/DTD/sodipodi-0.dtd"
   xmlns:inkscape="http://www.inkscape.org/namespaces/inkscape"
   width="35.949478mm"
   height="44.893143mm"
   viewBox="0 0 35.949478 44.893143"
   version="1.1"
   id="man-meditating"
   inkscape:version="0.92.3 (2405546, 2018-03-11)"
   sodipodi:docname="man-meditating.svg">
  <defs
     id="defs2774" />
  <sodipodi:namedview
     id="base"
     pagecolor="#ffffff"
     bordercolor="#666666"
     borderopacity="1.0"
     inkscape:pageopacity="0.0"
     inkscape:pageshadow="2"
     inkscape:zoom="1.979899"
     inkscape:cx="-25.076471"
     inkscape:cy="39.604762"
     inkscape:document-units="mm"
     inkscape:current-layer="layer1"
     showgrid="false"
     inkscape:window-width="1853"
     inkscape:window-height="1025"
     inkscape:window-x="67"
     inkscape:window-y="27"
     inkscape:window-maximized="1" />
  <metadata
     id="metadata2777">
    <rdf:RDF>
      <cc:Work
         rdf:about="">
        <dc:format>image/svg+xml</dc:format>
        <dc:type
           rdf:resource="http://purl.org/dc/dcmitype/StillImage" />
        <dc:title></dc:title>
      </cc:Work>
    </rdf:RDF>
  </metadata>
  <g
     inkscape:label="Layer 1"
     inkscape:groupmode="layer"
     id="layer1"
     transform="translate(-37.209784,-42.249262)">
    <g
       id="g3371">
      <g
         inkscape:label="#g3357"
         id="mat">
        <path
           style="fill:#191c1f;fill-opacity:1;stroke-width:0.21899539"
           d="m 37.395554,87.039775 c -0.41457,-0.414571 -0.11107,-1.45519 0.66969,-2.296192 0.45168,-0.486529 2.64678,-2.921288 4.87801,-5.410599 l 4.05677,-4.526 9.08295,-0.0528 c 4.99562,-0.0291 9.185341,0.02029 9.310481,0.109511 0.491939,0.350808 7.765809,8.573079 7.765809,8.778338 0,0.417031 -2.03177,2.247751 -3.148269,2.836711 l -1.122151,0.591961 -15.67088,0.0602 c -8.61898,0.0332 -15.73906,-0.008 -15.82241,-0.0912 z"
           id="path6546-9"
           inkscape:connector-curvature="0" />
        <path
           style="fill:#2b706b;fill-opacity:1;stroke-width:0.21899539"
           d="m 69.337503,85.866255 c 0.85036,-0.78473 1.507622,-2.408952 0.974812,-2.408952 -0.120451,0 -0.21899,0.206952 -0.21899,0.459891 0,0.252939 -0.33506,0.794959 -0.74458,1.204479 l -0.74459,0.744582 H 53.252574 c -13.58839,0 -15.35158,0.0382 -15.35158,0.332809 0,0.295169 1.74466,0.326131 15.42162,0.273751 l 15.421619,-0.0591 z"
           id="path6544-6"
           inkscape:connector-curvature="0" />
        <path
           style="fill:#4ecdc4;fill-opacity:1;stroke-width:0.21899539"
           d="m 68.572484,85.202783 c 0.49897,-0.267038 1.082839,-1.32044 1.082839,-1.953598 0,-0.507852 0.522891,-0.582372 1.70584,-0.243102 l 0.717461,0.205761 -0.71891,-0.84985 c -0.395399,-0.467431 -1.95075,-2.228191 -3.45634,-3.912811 l -2.73745,-3.062939 -8.99938,-0.0159 -8.99938,-0.0159 -3.72093,4.215659 c -2.04651,2.318613 -4.04305,4.585214 -4.43677,5.036895 l -0.71585,0.821229 h 14.92877 c 9.82027,0 15.072949,-0.0771 15.3501,-0.22548 z"
           id="path6542-5"
           inkscape:connector-curvature="0" />
        <path
           style="fill:#4ecdc4;fill-opacity:1;stroke-width:0.21899539"
           d="m 72.053644,84.236604 c 0.2296,-0.276651 0.217739,-0.359621 -0.067,-0.46887 -0.561211,-0.215361 -0.827559,-0.0155 -1.122479,0.84238 l -0.278112,0.808979 0.594302,-0.423179 c 0.326869,-0.232749 0.719839,-0.57444 0.873268,-0.75931 z"
           id="path6538-4"
           inkscape:connector-curvature="0" />
      </g>
      <rect
         inkscape:label="#rect5753-1"
         ry="3.0011332"
         y="73.575455"
         x="49.931736"
         height="9.579422"
         width="10.866211"
         id="cushion"
         style="fill:#191c1f;fill-opacity:1;stroke:#f7fff7;stroke-width:0.30585703;stroke-linecap:round;stroke-miterlimit:4;stroke-dasharray:none;stroke-dashoffset:0;stroke-opacity:1" />
      <path
         inkscape:label="#rect5667-2"
         sodipodi:nodetypes="cccsccssc"
         inkscape:connector-curvature="0"
         id="chest"
         d="m 58.972944,70.066323 c 0.15851,2.69503 -1.88352,4.99228 -4.57855,5.150792 m 0,0 c -2.69503,0.158509 -4.99229,-1.883522 -5.1508,-4.578541 l 0.46489,-5.844311 -1.18674,-6.428659 c -0.15852,-2.695031 1.88352,-4.99228 4.57854,-5.15079 2.69504,-0.15851 4.99228,1.883519 5.1508,4.57855 l 0.72186,12.272959"
         inkscape:transform-center-y="8.2520224"
         inkscape:transform-center-x="-0.019346767"
         style="fill:#434c55;fill-opacity:1;stroke:#f7fff7;stroke-width:0.79374999;stroke-linecap:round;stroke-miterlimit:4;stroke-dasharray:none;stroke-dashoffset:0;stroke-opacity:1" />
      <path
         inkscape:label="#rect4652-0"
         sodipodi:nodetypes="ccccccccc"
         inkscape:transform-center-y="10.169424"
         inkscape:transform-center-x="-6.3527093"
         inkscape:connector-curvature="0"
         id="arm"
         d="m 54.565884,56.493704 1.85092,8.93167 3.63772,3.317889 c 0.74674,0.78727 0.72736,2.0373 -0.0434,2.802742 -0.77078,0.765429 -1.99249,0.747847 -2.73923,-0.0394 l -4.16406,-3.976539 -1.85091,-8.93168 c -0.56121,-0.9287 -0.27513,-2.145681 0.64148,-2.728661 0.91658,-0.582999 2.10628,-0.30471 2.66749,0.623981 z"
         style="fill:#434c55;fill-opacity:1;stroke:#f7fff7;stroke-width:0.79374999;stroke-linecap:round;stroke-miterlimit:4;stroke-dasharray:none;stroke-dashoffset:0;stroke-opacity:1" />
      <circle
         inkscape:label="#path5686-6"
         transform="rotate(19.483576)"
         r="5.2649269"
         cy="27.325579"
         cx="66.411537"
         id="head"
         style="fill:#434c55;fill-opacity:1;stroke:#f7fff7;stroke-width:0.79374999;stroke-linecap:round;stroke-miterlimit:4;stroke-dasharray:none;stroke-dashoffset:0;stroke-opacity:1" />
      <g
         inkscape:label="#g3351"
         id="leg">
        <path
           id="rect5684-5-87"
           style="fill:#434c55;fill-opacity:1;stroke:#f7fff7;stroke-width:0.79374999;stroke-linecap:round;stroke-miterlimit:4;stroke-dasharray:none;stroke-dashoffset:0;stroke-opacity:1"
           d="m 58.492204,79.128344 -4.23707,-3.879601 c 1.82743,-0.0776 3.5068,-1.133578 4.21936,-2.6171 l 5.894491,5.929091 c 2.39707,2.580121 0.494409,4.52194 -1.120301,4.51281 m 0,-1.1e-5 v 1.1e-5 l -12.14086,0.0363 c -1.01673,0.0021 -1.89381,-0.67207 -1.97366,-1.685551 -0.0798,-1.013598 0.66971,-1.930959 1.68555,-1.973639 l 7.67249,-0.322389"
           inkscape:connector-curvature="0"
           sodipodi:nodetypes="cccccccccsc" />
        <rect
           style="fill:#434c55;fill-opacity:1;stroke:none;stroke-width:0.85332686;stroke-linecap:round;stroke-miterlimit:4;stroke-dasharray:none;stroke-dashoffset:0;stroke-opacity:1"
           id="rect5888-4"
           width="4.370358"
           height="5.0089493"
           x="-19.156307"
           y="88.876625"
           ry="1.7561246"
           transform="rotate(-47.837071)" />
      </g>
    </g>
  </g>
</svg>
