<?xml version="1.0" encoding="UTF-8" standalone="no"?>
<!-- Created with Inkscape (http://www.inkscape.org/) -->

<svg
   xmlns:dc="http://purl.org/dc/elements/1.1/"
   xmlns:cc="http://creativecommons.org/ns#"
   xmlns:rdf="http://www.w3.org/1999/02/22-rdf-syntax-ns#"
   xmlns:svg="http://www.w3.org/2000/svg"
   xmlns="http://www.w3.org/2000/svg"
   xmlns:sodipodi="http://sodipodi.sourceforge.net/DTD/sodipodi-0.dtd"
   xmlns:inkscape="http://www.inkscape.org/namespaces/inkscape"
   width="57.953678mm"
   height="57.01405mm"
   viewBox="0 0 57.953678 57.01405"
   version="1.1"
   id="svg2917"
   inkscape:version="0.92.3 (2405546, 2018-03-11)"
   sodipodi:docname="man-at-desk.svg">
  <defs
     id="defs2911" />
  <sodipodi:namedview
     id="base"
     pagecolor="#ffffff"
     bordercolor="#666666"
     borderopacity="1.0"
     inkscape:pageopacity="0.0"
     inkscape:pageshadow="2"
     inkscape:zoom="1.979899"
     inkscape:cx="19.619255"
     inkscape:cy="63.341611"
     inkscape:document-units="mm"
     inkscape:current-layer="layer1"
     showgrid="false"
     inkscape:window-width="1853"
     inkscape:window-height="1025"
     inkscape:window-x="67"
     inkscape:window-y="27"
     inkscape:window-maximized="1" />
  <metadata
     id="metadata2914">
    <rdf:RDF>
      <cc:Work
         rdf:about="">
        <dc:format>image/svg+xml</dc:format>
        <dc:type
           rdf:resource="http://purl.org/dc/dcmitype/StillImage" />
        <dc:title />
      </cc:Work>
    </rdf:RDF>
  </metadata>
  <g
     inkscape:label="Layer 1"
     inkscape:groupmode="layer"
     id="layer1"
     transform="translate(-42.885681,-58.6642)">
    <g
       id="g834">
      <g
         inkscape:label="#g3517"
         id="desk">
        <path
           sodipodi:nodetypes="cscsssscsccccccscccccccccccccccccccscc"
           inkscape:connector-curvature="0"
           style="fill:#ba4e4e;fill-opacity:1;stroke:none;stroke-width:1;stroke-miterlimit:4;stroke-dasharray:none;stroke-opacity:1"
           d="m 47.295704,114.85663 c -0.097,-0.097 -0.17639,-5.27623 -0.17639,-11.50937 V 92.014269 h -1.84277 c -2.13815,0 -2.39056,-0.237461 -2.39056,-2.248961 0,-2.30528 -0.13939,-2.248958 5.56556,-2.248958 4.87855,0 5.017769,-0.015 5.017769,-0.54119 0,-0.297651 0.29224,-0.83344 0.64943,-1.190622 0.567611,-0.567619 0.8862,-0.649438 2.52876,-0.649438 h 1.879321 l -0.0814,-1.124482 -0.0814,-1.124479 -4.6819,-0.0722 -4.68191,-0.0722 -0.54362,-0.69109 c -0.5245,-0.66681 -0.54361,-1.01107 -0.54361,-9.79557 v -9.10447 l 0.649429,-0.64943 0.649431,-0.64943 h 11.01259 11.012589 l 0.776981,0.77698 0.776991,0.77699 -0.0697,8.81416 -0.0697,10.40166 -3.439581,0.0646 c -3.125949,0 -4.942879,0.11425 -6.834479,0.11425 -0.11662,-0.0449 -0.0789,1.21115 -0.12067,2.38215 0,0 1.40769,-0.133241 3.07281,0.24047 1.26237,1.855099 3.756339,0.0217 8.28182,0.11566 l 3.8862,6.339771 -3.588731,0.0465 c 0,4.11298 -0.0971,8.80317 -0.0667,12.80287 v 5.15258 5.15258 H 60.657183 c -7.25179,0 -13.264449,-0.0794 -13.361459,-0.17639 z"
           id="path2860" />
        <g
           id="g3496">
          <path
             id="path2860-0"
             d="m 53.469313,86.97516 c 0,-0.297651 0.29224,-0.83344 0.64943,-1.190622 0.567611,-0.567619 0.8862,-0.649438 2.52876,-0.649438 h 1.879321 l -0.0814,-1.124482 -0.0814,-1.124479 -4.6819,-0.0722 -4.68191,-0.0722 -0.54362,-0.69109 c -0.5245,-0.66681 -0.54361,-1.01107 -0.54361,-9.79557 v -9.10447 l 0.649429,-0.64943 0.649431,-0.64943 h 11.01259 11.012589 l 0.776981,0.77698 0.776991,0.77699 -0.0697,8.81416 -0.0697,10.40166 -3.439581,0.0646 c -3.125949,0 -4.942879,0.11425 -6.834479,0.11425 -0.11662,-0.0449 -0.0789,1.21115 -0.12067,2.38215 0,0 1.50071,-0.169949 3.07281,0.14065 0.49552,0.0979 1.52282,0.56683 1.52282,1.65743"
             style="fill:#191c1f;fill-opacity:1;stroke-width:0.26458332"
             inkscape:connector-curvature="0"
             sodipodi:nodetypes="ccsccccccsccccccccccccsc" />
          <path
             inkscape:label="#path2858"
             inkscape:connector-curvature="0"
             id="screen"
             d="m 70.190683,79.218089 0.92334,-0.92333 v -6.33691 -6.3369 l -0.921221,-1.03159 -0.92125,-1.03161 -8.160278,-0.0969 c -4.48818,-0.0533 -8.606361,-0.0143 -9.15152,0.0867 -0.545161,0.10098 -1.36251,0.55487 -1.81631,1.00868 l -0.825091,0.8251 v 6.45675 6.45676 l 0.92334,0.92333 0.923331,0.92334 h 9.05117 9.051159 z"
             style="fill:#4ecdc4;fill-opacity:1;stroke-width:0.31587946" />
        </g>
      </g>
      <g
         inkscape:label="#g3508"
         id="man">
        <path
           inkscape:label="#rect5684-5-6-6-4-7-0-5"
           id="leg-right"
           style="fill:#434c55;fill-opacity:1;stroke:#f7fff7;stroke-width:1.32291663;stroke-linecap:round;stroke-miterlimit:4;stroke-dasharray:none;stroke-dashoffset:0;stroke-opacity:1"
           d="m 84.567414,100.37513 7.79834,-4.88395 c 0.902319,-1.452441 0.459539,-3.348191 -0.992889,-4.250561 -1.452462,-0.902361 -3.348191,-0.45956 -4.250571,0.992871 0,0 -7.130171,5.256519 -7.366169,6.409189 -0.184373,0.90011 -0.116462,13.314311 -0.116462,13.314311 0.0806,1.33531 1.034251,2.43331 2.371781,2.45686 1.337561,0.0235 2.44553,-1.03407 2.456889,-2.37177 l 0.0991,-11.66695"
           inkscape:connector-curvature="0"
           sodipodi:nodetypes="ccccscccc"
           inkscape:transform-center-x="4.6143329"
           inkscape:transform-center-y="9.6723155" />
        <path
           inkscape:label="#rect5684-5-6-6-4-7-0"
           id="leg-left"
           style="fill:#434c55;fill-opacity:1;stroke:#f7fff7;stroke-width:1.32291663;stroke-linecap:round;stroke-miterlimit:4;stroke-dasharray:none;stroke-dashoffset:0;stroke-opacity:1"
           d="m 75.418524,100.70797 7.79834,-4.88395 c 0.902319,-1.45244 0.459539,-3.348191 -0.992891,-4.25056 -1.452459,-0.902362 0.90238,-1.45243 0,0 0,0 -11.38074,6.249389 -11.61674,7.40206 -0.18437,0.90011 -0.116459,13.31432 -0.116459,13.31432 0.0806,1.33531 1.034251,2.4333 2.37178,2.45686 1.337559,0.0235 2.445531,-1.03407 2.456889,-2.37177 l 0.0991,-11.66696"
           inkscape:connector-curvature="0"
           sodipodi:nodetypes="ccccscccc"
           inkscape:transform-center-x="4.6143329"
           inkscape:transform-center-y="9.6723155" />
        <path
           inkscape:label="#path2854"
           style="fill:#434c55;fill-opacity:1;stroke:#f7fff7;stroke-width:1.32291663;stroke-miterlimit:4;stroke-dasharray:none;stroke-opacity:1"
           d="m 75.655374,91.882049 0.0933,-3.307361 H 70.938623 66.128564 L 65.355163,87.80129 c -1.014599,-1.0146 -1.071839,-2.553962 -0.135479,-3.643622 l 0.63792,-0.74236 4.190731,-0.132289 4.19073,-0.132289 0.4567,-0.933361 c 0.25119,-0.51335 0.652057,-1.88257 0.890817,-3.04271 0.23876,-1.16014 0.651301,-2.53734 0.916771,-3.06044 0.58452,-1.15182 2.111312,-2.53917 3.098372,-2.81539 0.397509,-0.11125 3.63978,-0.20227 7.205038,-0.20227 5.710102,0 6.58473,0.056 7.34219,0.46982 0.47294,0.2584 1.918041,2.08402 1.9178,2.11667 -2.3e-4,0.0326 -2.717858,0.0593 -6.039178,0.0593 h -6.038752 c -2.24065,0 -3.664349,2.45445 -3.664349,4.23333 l -0.0799,8.400519 -0.0799,8.400521 -1.77219,7.1e-5 -2.83052,5.8e-5 z"
           id="chest"
           inkscape:connector-curvature="0"
           sodipodi:nodetypes="ccccssccccsccsccsccccccc" />
        <path
           inkscape:label="#path2850"
           inkscape:connector-curvature="0"
           style="fill:#434c55;fill-opacity:1;stroke:#f7fff7;stroke-width:1.32291663;stroke-miterlimit:4;stroke-dasharray:none;stroke-opacity:1"
           d="m 82.447437,72.682987 c -6.12635,-3.05581 -5.10563,-11.72015 1.555959,-13.20782 2.826012,-0.6311 5.90823,0.80138 7.405981,3.44198 0.719659,1.2688 0.82064,1.69395 0.815261,3.43254 -0.005,1.52231 -0.140751,2.23871 -0.58425,3.07663 -0.748581,1.41431 -2.67022,3.09635 -3.988721,3.49138 -1.60024,0.47945 -3.988419,0.37174 -5.20423,-0.23471 z"
           id="head" />
      </g>
      <path
         inkscape:label="#path2856"
         id="chair"
         d="m 78.476004,115.16351 c -0.587941,-0.49499 -0.655891,-0.81642 -0.746871,-3.53335 -0.133228,-3.97863 0.21209,-5.0727 1.87646,-5.9453 0.68082,-0.35695 1.71078,-0.64898 2.288791,-0.64898 h 1.05092 v -1.29796 -1.29798 h -4.817571 c -4.45372,0 -4.87277,-0.0451 -5.54855,-0.5978 -0.622409,-0.50902 -0.73098,-0.82078 -0.73098,-2.09909 0,-2.713792 1.27726,-3.64871 4.984781,-3.64871 h 2.228329 v -9.52989 c 0,-13.795241 -0.69414,-12.965501 10.848001,-12.967071 7.77389,-0.001 7.953849,0.0121 8.862679,0.64888 0.51022,0.35748 1.184101,1.10381 1.497517,1.65851 0.54886,0.9714 0.56985,1.42821 0.56985,12.401791 v 11.393238 l -0.66544,0.970052 c -1.097195,1.5994 -1.861516,1.77009 -7.925887,1.77009 h -5.418749 v 1.29798 1.29796 l 1.317781,5.3e-4 c 1.73323,5.3e-4 3.139398,0.75857 3.744838,2.01862 0.371772,0.77374 0.485162,1.73674 0.4855,4.12332 2.65e-4,2.92172 -0.0416,3.15747 -0.680529,3.82178 -0.867871,0.90231 -1.931631,0.90231 -2.799501,0 -0.622609,-0.64746 -0.68095,-0.93163 -0.68095,-3.31714 v -2.60905 h -3.32913 -3.329128 v 2.71922 c 0,2.59405 -0.0337,2.74673 -0.73098,3.31702 -0.906341,0.74122 -1.517592,0.75508 -2.351181,0.0533 z"
         style="fill:#ba4e4e;fill-opacity:1;stroke:none;stroke-width:1;stroke-miterlimit:4;stroke-dasharray:none;stroke-opacity:1"
         inkscape:connector-curvature="0" />
    </g>
  </g>
</svg>
